# xmcd
#
# Track frame offsets:
#	150
#	13702
#	34890
#	63345
#	92680
#
# Disc length: 1488 seconds
#
# Revision: 1
# Processed by: cddbd v1.5.2PL0 Copyright (c) Steve Scherf et al.
# Submitted via: audiograbber 1.83.01
#
DISCID=3705ce05
DTITLE=Gary Moore - Learn to play Gary Moore
DYEAR=1900
DGENRE=
TTITLE0=Walking by myself
TTITLE1=The loner
TTITLE2=Still got the blues
TTITLE3=Empty rooms
TTITLE4=Out in the fields
EXTD=Guitar tutorials
EXTT0=
EXTT1=
EXTT2=
EXTT3=
EXTT4=
PLAYORDER=
